<?xml version="1.0" encoding="UTF-8"?>
<svg width="349px" height="216px" version="1.1" viewBox="0 0 349 216" xmlns="http://www.w3.org/2000/svg">
 <g fill="#ff8080">
  <rect x="11.944" y="21.672" width="40.089" height="149.32" stroke-width=".92357"/>
  <path d="m26.106-5.9926a2.9652 8.4063 0 0 1-0.0023 0.3284" stroke-width="1.0225"/>
  <ellipse cx="32.013" cy="22.27" rx="20.087" ry="9.546" stroke-width=".92357"/>
 </g>
 <rect x="53.294" y="35.445" width="36.108" height="135.61" fill="#ffb380" stroke-width=".83532"/>
 <ellipse cx="71.37" cy="35.988" rx="18.092" ry="8.6697" fill="#ffb380" stroke-width=".83532"/>
 <rect x="90.937" y="21.738" width="35.113" height="149.32" fill="#87cdde" stroke-width=".86436"/>
 <ellipse cx="108.51" cy="22.336" rx="17.594" ry="9.546" fill="#87cdde" stroke-width=".86436"/>
 <rect x="127.33" y="17.169" width="36.108" height="153.89" fill="#80b3ff" stroke-width=".88983"/>
 <ellipse cx="145.41" cy="17.785" rx="18.092" ry="9.8381" fill="#80b3ff" stroke-width=".88983"/>
 <rect transform="matrix(.96871 -.2482 .26118 .96529 0 0)" x="145.11" y="90.184" width="36.046" height="124.46" fill="#afafe9" stroke-width=".79954"/>
 <ellipse transform="rotate(-12.838)" cx="166.67" cy="84.227" rx="18.092" ry="8.0855" fill="#afafe9" stroke-width=".80669"/>
 <g fill="#faa">
  <rect x="12.092" y="73.316" width="39.738" height="8.9101" stroke-width=".82095"/>
  <rect x="11.962" y="64.801" width="39.98" height="2.4214" stroke-width=".42926"/>
  <rect x="12.065" y="39.619" width="39.902" height="5.9544" stroke-width=".6725"/>
  <rect x="12.036" y="90.483" width="39.98" height="2.4214" stroke-width=".42926"/>
  <rect x="12.065" y="111.38" width="39.738" height="5.9544" stroke-width=".67111"/>
  <rect x="12.065" y="150.62" width="39.738" height="8.9101" stroke-width=".82095"/>
  <rect x="12.05" y="137.45" width="39.98" height="2.4214" stroke-width=".42926"/>
 </g>
 <rect x="53.592" y="62.175" width="35.554" height="8.9101" fill="#fca" stroke-width=".77654"/>
 <rect x="53.477" y="53.66" width="35.563" height="2.4214" fill="#fea" stroke-width=".40486"/>
 <rect x="53.542" y="79.342" width="35.563" height="2.4214" fill="#fea" stroke-width=".40486"/>
 <rect x="53.362" y="100.24" width="35.967" height="5.9544" fill="#fca" stroke-width=".63847"/>
 <rect x="53.568" y="139.48" width="35.348" height="8.9101" fill="#fca" stroke-width=".77428"/>
 <rect x="53.372" y="126.31" width="35.893" height="2.4214" fill="#fea" stroke-width=".40673"/>
 <rect x="53.394" y="157.3" width="35.893" height="4.1724" fill="#fea" stroke-width=".53392"/>
 <rect x="90.882" y="42.669" width="35.157" height="8.9101" fill="#afe9af" stroke-width=".77219"/>
 <rect x="91.057" y="108.19" width="34.97" height="8.9101" fill="#afe9af" stroke-width=".77013"/>
 <rect x="91.143" y="31.661" width="34.792" height="2.4214" fill="#87decd" stroke-width=".40045"/>
 <rect x="90.962" y="63.691" width="35.037" height="2.4214" fill="#87decd" stroke-width=".40186"/>
 <rect x="91.032" y="71.434" width="34.998" height="12.303" fill="#afe9af" stroke-width=".90533"/>
 <rect x="91.046" y="133.81" width="34.957" height="8.9101" fill="#afe9af" stroke-width=".76998"/>
 <g fill="#87decd">
  <rect x="91.041" y="119.95" width="34.926" height="2.4214" stroke-width=".40122"/>
  <rect x="90.927" y="149.88" width="34.926" height="4.1724" stroke-width=".52668"/>
  <rect x="91.079" y="100.98" width="34.926" height="2.4214" stroke-width=".40122"/>
 </g>
 <g fill="#59f">
  <rect x="127.39" y="48.757" width="35.999" height="8.9101" stroke-width=".78137"/>
  <rect x="127.57" y="114.28" width="35.807" height="8.9101" stroke-width=".7793"/>
  <rect x="127.66" y="37.748" width="35.625" height="2.4214" stroke-width=".40521"/>
  <rect x="127.47" y="69.779" width="35.876" height="2.4214" stroke-width=".40664"/>
  <rect x="127.54" y="77.522" width="35.836" height="12.303" stroke-width=".9161"/>
  <rect x="127.56" y="139.9" width="35.793" height="8.9101" stroke-width=".77914"/>
  <rect x="127.55" y="126.04" width="35.762" height="2.4214" stroke-width=".40599"/>
  <rect x="127.44" y="155.97" width="35.762" height="4.1724" stroke-width=".53294"/>
  <rect x="127.59" y="107.07" width="35.762" height="2.4214" stroke-width=".40599"/>
  <rect x="127.5" y="30.181" width="35.625" height="2.4214" stroke-width=".40521"/>
  <rect x="127.5" y="22.76" width="35.625" height="2.4214" stroke-width=".40521"/>
 </g>
 <rect x="1.3482" y="170.48" width="346.29" height="22.811" ry="11.405" fill="#c87137" stroke-width="1.3096"/>
 <g fill="#8080ff">
  <rect transform="matrix(.9666 -.25628 .25899 .96588 0 0)" x="145.64" y="115.53" width="35.798" height="8.8171" stroke-width=".77511"/>
  <rect transform="rotate(-15.765)" x="143.66" y="152.07" width="35.876" height="2.4214" stroke-width=".40664"/>
  <rect transform="matrix(.9666 -.25628 .25899 .96588 0 0)" x="145.52" y="158.9" width="35.798" height="8.8171" stroke-width=".77511"/>
  <g stroke-width=".40664">
   <rect transform="rotate(-15.765)" x="142.96" y="195.43" width="35.876" height="2.4214"/>
   <rect transform="rotate(-15.765)" x="143.18" y="173.73" width="35.876" height="2.4214"/>
   <rect transform="rotate(-15.765)" x="144.12" y="100.3" width="35.876" height="2.4214"/>
  </g>
 </g>
 <g fill="#784421" stroke-width=".26458">
  <path transform="matrix(.14149 -.0035661 .0053396 .25996 73.655 197.2)" d="m-185.14 56.965-42.195-75.327 86.333 1.1212z"/>
  <path transform="matrix(.19997 -.0003289 .00018989 .34635 87.03 204.29)" d="m-198.08 35.603-30.167-21.917 11.523-35.463 37.288 2e-6 11.523 35.463z"/>
  <path transform="matrix(.14149 -.0035661 .0053396 .25996 328.63 197.19)" d="m-185.14 56.965-42.195-75.327 86.333 1.1212z"/>
  <path transform="matrix(.19997 -.0003289 .00018989 .34635 342.01 204.28)" d="m-198.08 35.603-30.167-21.917 11.523-35.463 37.288 2e-6 11.523 35.463z"/>
 </g>
 <g fill="#a05a2c">
  <rect x="251.86" y="130" width="73.259" height="7.0953" ry="3.5477" stroke-width=".16383"/>
  <g stroke-width=".26458">
   <path transform="matrix(.33571 0 0 .40245 298.76 143.34)" d="m-79.611 68.177-49.142-85.116 98.283-3e-6z"/>
   <path transform="matrix(-.33571 .00050769 -.00125 -.40245 261.81 163.92)" d="m-79.611 68.177-49.142-85.116 98.283-3e-6z"/>
   <path transform="matrix(.33571 0 0 .40245 331.55 143.43)" d="m-79.611 68.177-49.142-85.116 98.283-3e-6z"/>
  </g>
 </g>
 <g stroke-width=".96987">
  <path d="m282.29 115.95-7.5184-1.7574-5.1262-0.43937-6.4932 0.21969-4.4427 0.87873-4.7844 1.3181-4.7845 2.4165-3.0757 1.9771-3.0757 2.6362-2.3922 3.9543-1.367 3.5149-1.7087 2.8559-1.367 1.7575 5.4679 0.43937h5.468l5.468-0.87873 5.1262-1.7575 7.5184-3.0756 3.0757-1.9771 2.734-1.9772 2.734-2.8559 2.734-2.4165 2.3922-2.6362z" fill="#008000"/>
  <path d="m282.13 116.04 2.7864 3.4543 0.39822 1.6632 0.0996 1.0875 0.19889 1.5352v6.013l-0.49758-0.064 0.0996-5.6932-0.29854-3.5183-0.19889-0.95952z" fill="#784421"/>
  <path d="m292.51 109.74 1.5748-3.037 2.9246-2.1693 3.3746-1.4462 5.3994-1.4462 4.2745-0.14462 5.1744 0.14462 3.5996 0.28926 4.7245 0.57848 4.4995 0.86771 4.0496 1.157 3.5996 1.5908 2.0248 1.157 2.2497 1.4462 2.0248 0.86772-3.3746 1.5908-3.3746 1.4462-4.0496 0.86772-4.9495 1.0123-4.7244 1.157-4.9495 0.28925h-10.349l-3.5996-0.43386-2.9247-1.0123-3.1496-1.157-2.9247-1.7354z" fill="#447821"/>
  <path d="m292.29 110.17-2.2497 5.3509-0.89991 3.4709-1.1249 3.4709-0.67482 5.2063v2.1693h0.89991l-0.22495-3.7601 0.67492-5.0617 1.5748-4.7724z" fill="#803300"/>
  <path d="m288.46 104.96 0.44987-3.4709-0.89989-2.6032-2.0248-2.6032-4.4995-2.0247-5.6244-1.4462-6.5243-0.43386h-4.0495l-5.6244 0.14463-4.0495 0.86771-4.2745 1.157-4.4995 1.3016-4.2745 1.7354-1.7998 1.0123-2.9247 1.4462-1.7998 1.0123-1.3498 1.157-1.1249 1.7354-1.3499 1.157 3.3746 0.72309 3.8246 1.157 6.9742 1.4462h6.5243l7.4242-0.28922 2.6997-0.14463 5.1744-0.86771 6.5243-1.4462 3.5996-1.4462 4.7245-2.3139 3.1496-0.28925 2.2498 0.28925 0.44989 0.7231-0.22495-0.43386z" fill="#338000"/>
  <path d="m288.69 102.22-2.4747 12.727-0.22494 8.9664 0.22494 5.9294h0.67492l-0.44989-11.136 0.44989-6.074 0.8999-5.4955z" fill="#784421"/>
 </g>
</svg>
