<?xml version="1.0" encoding="UTF-8"?>
<svg width="1000px" height="400px" version="1.1" viewBox="0 0 500 200" xmlns="http://www.w3.org/2000/svg">
 <g fill-opacity="0">
  <rect x="14.326" y="85.443" width="70.774" height="43.059" ry="12.041" opacity=".86" stroke-width=".19811"/>
  <rect x="26.121" y="92.293" width="34.48" height="33.273" ry="12.041" opacity=".86" stroke-width=".19811"/>
  <rect x="-362.44" y="106.97" width="193.81" height="128.36" ry="49.463" opacity=".86" stroke-width=".26458"/>
  <ellipse cx="-274.35" cy="159.83" rx="66.699" ry="35.237" opacity=".86" stroke-width=".26458"/>
  <rect x="19.77" y="49.234" width="82.57" height="54.802" ry="2.9358" opacity=".86" stroke-width=".19842"/>
 </g>
 <ellipse cx="58.559" cy="106.13" rx="31.47" ry="22.072" fill="#c8b7b7" fill-rule="evenodd" stroke-width=".19811"/>
 <path d="m31.722 100.3-3.4752-15.825 16.218 7.9127z" fill-opacity="0" opacity=".86" stroke-width=".19842"/>
 <g fill="#c8b7b7">
  <path d="m28.633 99.88-2.7029-15.409 20.079 7.4963z" fill-opacity=".9"/>
  <path d="m88.484 99.255 2.703-15.409-20.079 7.4963z" fill-opacity=".9"/>
  <ellipse cx="56.821" cy="129.03" rx="8.1089" ry="17.075" fill-rule="evenodd" stroke-width=".19811"/>
  <ellipse cx="69.177" cy="136.11" rx="19.693" ry="14.16" fill-rule="evenodd" stroke-width=".19811"/>
  <path d="m61.455 115.29 6.1782 5.8304 9.6534 2.0823 1.5445 7.9127-18.921-7.0798z"/>
  <path d="m84.623 140.69c1.7809-1.5988 3.3378-3.439 5.1684-4.9806s4.026-2.8019 6.4157-2.9322c1.5245-0.0831 3.0531 0.303 4.4259 0.97109s2.598 1.6107 3.7047 2.6626c2.2133 2.1036 3.9713 4.645 6.1564 6.7778 0.61095 0.59632 1.2602 1.1638 2.0033 1.584 0.74316 0.42022 1.5899 0.68835 2.4428 0.65013 0.42644-0.0191 0.8508-0.11519 1.2375-0.29596 0.38671-0.18076 0.73502-0.44715 0.99871-0.78284 0.2637-0.33568 0.44106-0.74108 0.49344-1.1647 0.0524-0.42365-0.0225-0.8644-0.22529-1.24-0.22998-0.42597-0.61132-0.75275-1.0237-1.0063-0.41237-0.25356-0.86045-0.44245-1.2931-0.65952-2.3767-1.1923-4.2246-3.1937-6.1782-4.9975-2.6179-2.4171-5.5516-4.5614-8.8811-5.8304-1.4887-0.56739-3.0574-0.95657-4.6498-1.0049-1.5924-0.0484-3.2119 0.25482-4.6174 1.0049-1.4635 0.78108-2.6353 2.0043-3.7483 3.2344s-2.2116 2.5034-3.5883 3.4289c-1.0212 0.68648-2.1938 1.1813-3.0379 2.0765-0.42206 0.44763-0.75254 0.99765-0.86159 1.6031-0.05452 0.30275-0.05276 0.61668 0.01656 0.91638 0.06932 0.29971 0.20706 0.58473 0.4077 0.81791 0.28647 0.33292 0.69489 0.55088 1.1252 0.63887 0.4303 0.088 0.88102 0.0506 1.3027-0.072 0.84344-0.2454 1.5521-0.8129 2.2057-1.3997z"/>
 </g>
 <g fill="none" stroke="#000">
  <path d="m37.9 114.04c-4.2473 0.27784-12.742 1.6658-12.742 1.6658z" stroke-width=".19811px"/>
  <path d="m38.661 117.83-11.947 4.4964z" stroke-width=".25864px"/>
  <path d="m79.613 112.07 14.268 3.1121z" stroke-width=".34322px"/>
  <path d="m79.22 114.88 10.42 5.4016z" stroke-width=".20984px"/>
 </g>
 <g fill-rule="evenodd">
  <ellipse cx="44.465" cy="104.88" rx="6.5614" ry="5.8273" fill="#fff"/>
  <ellipse cx="70.722" cy="104.46" rx="6.5614" ry="5.8273" fill="#fff"/>
  <g fill="#a05a2c" stroke-width=".26458">
   <rect x=".74089" y="142.99" width="498.62" height="28.895" rx="66.68" ry="5.2572"/>
   <rect x="37.044" y="167.44" width="22.967" height="61.493" rx="11.484" ry="5.2572"/>
   <rect x="433.79" y="167.07" width="22.967" height="61.493" rx="11.484" ry="5.2572"/>
  </g>
 </g>
 <g stroke="#000">
  <path d="m230.39 120.76s0 10.733-5.9186 16.099c-5.9186 5.3662-17.756 5.3662-17.756 5.3662 1.2e-4 0 11.837 0 17.756-5.3664 5.9185-5.3664 5.9185-16.099 5.9185-16.099z" fill="none" stroke-width="1.14"/>
  <path d="m287.2 120.72s0 10.733 5.9186 16.099c5.9186 5.3662 17.756 5.3662 17.756 5.3662-1.2e-4 0-11.837 0-17.756-5.3664-5.9185-5.3664-5.9185-16.099-5.9185-16.099z" fill="none" stroke-width="1.24"/>
  <path d="m217.15 141.98c8.8008-3.0484 12.265-7.8212 14.025-19.321l0.46484-3.0378h54.475l0.50894 4.2021c0.68648 5.6679 3.6941 12.368 6.5528 14.597 1.2888 1.0051 4.0144 2.4604 6.0569 3.2339 3.6021 1.3642 2.3814 1.4056-40.664 1.3787-36.876-0.0231-43.878-0.20097-41.419-1.0525z" fill="#e3dbdb" opacity=".86" stroke-width=".635"/>
  <path transform="scale(.26458)" d="m800.05 538.68c3.1796-0.4093 7.2877-1.0827 9.129-1.4964 2.9122-0.65434 3.4025-0.54341 3.7675 0.85245 0.39297 1.5027-0.18695 1.5978-9.129 1.4964-9.476-0.10745-9.5046-0.11394-3.7675-0.85245z" fill="#28170b" opacity=".86" stroke-width="3.6878"/>
  <path transform="scale(.26458)" d="m1142.2 537.83c0-1.5492 0.3331-1.7163 2.3537-1.181 1.2946 0.34299 5.4349 1.1169 9.2009 1.7199l6.8471 1.0963-9.2009 0.0847c-8.8147 0.0811-9.2008 9e-3 -9.2008-1.7199z" fill="#28170b" opacity=".86" stroke-width="3.6878"/>
  <rect x="153.36" y="5.1862" width="205.97" height="114.84" rx="11.484" ry="5.2572" fill="#e3dbdb" fill-rule="evenodd" stroke-width="1.965"/>
 </g>
 <rect x="160.03" y="11.854" width="191.99" height="102.24" rx="11.49" ry="5.3345" fill="#28170b" fill-rule="evenodd" stroke-width=".2666"/>
 <rect x="411.9" y="98.292" width="57.481" height="45.536" ry="9.3818" fill="#2ca02c" stroke="#000" stroke-width=".41406"/>
 <rect x="414.82" y="100.9" width="51.895" height="41.141" ry="10.812" fill="#e6e6e6" stroke-width=".099211"/>
 <g fill-rule="evenodd">
  <ellipse className="lefteye" cx="44.022" cy="102.44" rx="3.6103" ry="2.8865" stroke-width=".21247"/>
  <ellipse className="righteye" cx="69.747" cy="102.05" rx="3.6103" ry="2.8865" stroke-width=".21247"/>
  <rect className="longhand" x="439.07" y="101.86" width="3.2993" height="20.382" ry="1.0727" fill="#333" stroke-width=".55926"/>
  <rect className="shorthand" x="440.25" y="120.25" width="14.284" height="2.9476" ry=".82033" fill="#00f" stroke-width=".23908"/>
  <rect x="424.06" y="96.1" width="34.95" height="3.6709" ry=".4919" stroke-width=".343"/>
 </g>
</svg>
