<?xml version="1.0" encoding="UTF-8"?>
<svg width="250px" height="250px" version="1.1" viewBox="0 0 250 250" xmlns="http://www.w3.org/2000/svg">
 <g fill="#784421">
  <g stroke-width=".26458">
   <rect x=".52966" y=".48901" width="12.44" height="250.03" ry="0"/>
   <rect x="7.0464" y=".49451" width="237.62" height="9.9287"/>
   <rect x="238.13" y=".57702" width="12.44" height="250.03" ry="0"/>
  </g>
  <rect x="7.8118" y="239.9" width="237.62" height="10.693" stroke-width=".27458"/>
 </g>
 <rect x="13.04" y="9.9637" width="226.07" height="229.95" fill="#afe9dd" stroke-width=".7624"/>
 <g fill="#fca">
  <ellipse cx="120.49" cy="120.8" rx="46.302" ry="46.095" stroke-width=".41119"/>
  <ellipse transform="matrix(.98106 -.1937 .19866 .98007 0 0)" cx="46.058" cy="143.07" rx="5.4615" ry="9.9393" stroke-width=".3076"/>
  <ellipse transform="matrix(.97699 .2133 -.21872 .97579 0 0)" cx="191.67" cy="92.242" rx="5.4609" ry="9.9403" stroke-width=".3076"/>
 </g>
 <g fill="#483e37" stroke-width=".3076">
  <path d="m85.926 120.9 13.212 0.20375 8.0513-0.40749 1.2386-15.485 2.8902 15.892h8.4642l9.2899-0.40749h6.1933l7.6384-0.4075h8.0513l4.3353 0.61124 1.4451 5.9086 0.61933 5.5012-1.0322 14.262 3.716-10.595 5.1611-13.855 1.6516-0.81498 2.2709-0.4075 2.4773 1.63 1.0322 3.4637 0.20645 2.8524-0.41289 3.0562-1.6515 4.6862-1.2387 1.8337-1.858 1.63-3.5095 0.61124-1.2387 5.2974-1.858 4.2787 9.0835-5.9086 3.5095-4.8899 2.6838-7.5386 1.4451-10.187v-11.206l-3.3031-9.1686-4.5417-8.7611-6.3997-9.1686-7.6384-7.7423-6.6062-4.6862-5.574-2.0375-10.941-3.6674-9.2899-1.63-10.941-0.61124-8.2577 0.81498-9.4964 3.4637-3.9224 2.0375-5.574 4.4824-4.7482 4.2787-5.574 6.3161-3.0966 5.2974-2.8902 5.9086-3.3031 7.1311-3.0966 12.836-0.20644 8.3536 1.2387 8.5573 2.0644 7.7424 5.7804 6.7236 9.0835 4.6862-3.0966-6.7236-1.2387-4.4824-2.6838 0.20374-3.9224-3.4637-1.6515-6.7236v-3.2599l0.61933-3.2599 1.2387-1.4262 1.2387-0.61124 1.0322-0.4075h1.2387l1.2387 0.61124z"/>
  <path d="m75.191 121.51 0.61933 6.9274 3.0966 7.3349 3.0966 6.5199 2.6838 3.4637-2.6838-16.3 0.82577-9.3723z"/>
  <path d="m101 67.11-5.9869-4.0749-2.0644-6.5199 1.858-6.3161 2.0644-3.6674 4.5417-1.4262 4.3353-1.0187 8.877-0.61124 4.7482 0.20374 7.2255 0.81498 6.8126 0.61124 7.0191 2.2412 3.9224 4.6862-0.61933 5.2974-1.2387 6.1124-3.5095 2.6487-5.574 1.0187z"/>
 </g>
 <path d="m99.345 65.48 2.0644-1.63 2.6838-0.20374 6.8126 0.20374h16.722l7.432 0.61124 1.6516 2.0375-2.8902 0.20374h-5.1611l-5.1611-0.40749h-10.735l-4.1289-0.20374h-4.5418z" fill="#ff8080" stroke-width=".3076"/>
 <g fill="#483e37" stroke-width=".3076">
  <path d="m72.112 147.19 8.5483 9.2803 6.5537 4.7808-6.8386-10.405z"/>
  <path d="m162.15 148.04-5.9838 9.8427 11.398-12.092z"/>
  <path d="m77.041 141.6 9.1733 18.93-10.007-11.934z"/>
  <path d="m168.38 144.19-4.3004-3.5912-1.8194 5.5501-3.1426 6.0398-3.4734 6.203z"/>
  <path d="m76.252 140.11 1.9848 4.5706-3.4734-2.2853z"/>
  <path d="m76.417 140.6 5.2927 9.3045 2.3156 4.7339 2.6464 4.2442 2.1502 3.428-7.9391-7.3457-5.1273-14.691z"/>
 </g>
 <g stroke-width=".3076">
  <path d="m113 166.45 1.302 5.1399 5.208 1.7133h7.812l5.208-2.57v-2.9983l-0.434-4.2833z" fill="#fca"/>
  <path d="m113.87 170.73 4.774 2.1416h9.982l3.472-2.57 0.868-1.285 13.888 0.42833 8.68 2.1416 15.19 8.1382 5.642 5.5683 3.906 8.1382 1.736 6.8533 2.17 10.708 2.604 10.708 1.302 8.1382 0.868 4.2833 0.868 5.5683h-118.48l-1.302-18.846 1.302-11.565 3.472-12.85 6.076-12.422 7.378-7.7099 5.642-3.855 9.114-2.1416z" fill="#e9afaf"/>
  <path d="m112.94 165.61 0.10649 4.9393-0.42592 1.5764 3.088 2.6273 3.5139 1.4713 4.0463 0.42036 3.1945-0.21018 4.3658-1.0509 1.9167-1.3662 1.8102-2.1018-1.5972-2.8374-0.85186-3.6782z" fill="#fca"/>
  <path d="m107.72 175.49-1.9167-5.1494 6.9213-1.156 0.27698-0.0389 0.0873 1.3215-0.20375 0.43092z" fill="#e9afaf"/>
 </g>
 <path d="m72.267 209.41-6.2928 29.576 0.03676 0.9653 123.88-0.0709-0.42521-1.7717z" fill="#e9afaf" stroke-width=".26458"/>
 <path d="m130.24 138.86 0.57075-4.8496 0.57074-2.2632 2.5675-3.2329 3.4234-1.2932 3.138 0.32305 3.7086 1.94 1.9969 3.5563 0.85611 4.8497 0.0673 0.70532-2.075 0.0784-0.27673-2.0382-0.41509-1.7245-0.62262-1.3326-0.76099-1.4109-0.89936-1.3327-1.245-0.62695-1.8676-0.70532-1.66 0.15674-1.2451 0.31348-1.0375 0.62694-0.76099 0.94086-0.76099 1.3326-0.27673 1.0192-0.20754 1.1759-0.13836 1.411-0.0673 1.0193-0.13837 1.1758z" fill="#280b0b" stroke-width="2.7064"/>
 <path d="m90.987 139.68 0.57075-4.8496 0.57074-2.2632 2.5675-3.2329 3.4234-1.2932 3.138 0.32305 3.7086 1.94 1.9969 3.5563 0.85611 4.8497 0.0673 0.70532-2.075 0.0784-0.27673-2.0382-0.41509-1.7245-0.62262-1.3326-0.76099-1.4109-0.89936-1.3327-1.245-0.62695-1.8676-0.70532-1.66 0.15674-1.2451 0.31348-1.0375 0.62694-0.76099 0.94086-0.76099 1.3326-0.27673 1.0192-0.20754 1.1759-0.13836 1.411-0.0673 1.0193-0.13837 1.1758z" fill="#280b0b" stroke-width="2.7064"/>
 <path d="m120.31 156.31-4.9652-2.5746-3.1262-4.9652-0.91948-2.5746 12.137-0.36779 4.2296-0.18389-0.1839 4.2296-2.9423 4.5974-2.3906 1.4712z" fill="#ff8080" stroke-width=".26458"/>
 <ellipse transform="rotate(-13.913)" cx="11.521" cy="217.73" rx="15.635" ry="31.602" fill="#e9afaf" stroke-width=".26458"/>
 <ellipse transform="matrix(.89386 -.44835 .33009 .94395 0 0)" cx="-8.2316" cy="178.14" rx="9.8729" ry="15.481" fill="#fca" stroke-width=".26822"/>
 <ellipse transform="matrix(.94862 -.31643 -.26328 .96472 0 0)" cx="126.96" cy="223.79" rx="3.6125" ry="8.0702" fill="#fca" stroke-width=".11714"/>
</svg>
